<mxfile host="Electron" agent="Mozilla/5.0 (X11; Linux x86_64) AppleWebKit/537.36 (KHTML, like Gecko) draw.io/24.7.5 Chrome/126.0.6478.183 Electron/31.3.0 Safari/537.36" version="24.7.5">
  <diagram name="Page-1" id="OG9BTvCCsHkbAwrGS6bM">
    <mxGraphModel dx="1185" dy="688" grid="1" gridSize="10" guides="1" tooltips="1" connect="1" arrows="1" fold="1" page="1" pageScale="1" pageWidth="850" pageHeight="1100" math="0" shadow="0">
      <root>
        <mxCell id="0" />
        <mxCell id="1" parent="0" />
        <mxCell id="mbbrbkfb5ORFqxbrYsTz-1" value="" style="group" parent="1" vertex="1" connectable="0">
          <mxGeometry x="220" y="250" width="140" height="90" as="geometry" />
        </mxCell>
        <mxCell id="mbbrbkfb5ORFqxbrYsTz-2" value="&lt;span style=&quot;box-sizing: border-box; font-family: &amp;quot;Lucida Console&amp;quot;, Courier, monospace; font-size: 9px; color: rgb(163, 21, 21);&quot;&gt;let&lt;/span&gt;&lt;span style=&quot;color: rgb(0, 0, 0); font-family: &amp;quot;Lucida Console&amp;quot;, Courier, monospace; font-size: 9px; background-color: rgb(255, 255, 255);&quot;&gt;&amp;nbsp;a = 1&lt;/span&gt;;&lt;br&gt;&lt;span style=&quot;border-color: var(--border-color); box-sizing: border-box; font-family: &amp;quot;Lucida Console&amp;quot;, Courier, monospace; color: rgb(163, 21, 21);&quot;&gt;let&lt;/span&gt;&lt;span style=&quot;border-color: var(--border-color); color: rgb(0, 0, 0); font-family: &amp;quot;Lucida Console&amp;quot;, Courier, monospace; background-color: rgb(255, 255, 255);&quot;&gt;&amp;nbsp;b =&amp;nbsp;&lt;/span&gt;&lt;span style=&quot;border-color: var(--border-color); box-sizing: border-box; color: rgb(0, 0, 0); font-family: &amp;quot;Lucida Console&amp;quot;, Courier, monospace;&quot;&gt;0&lt;/span&gt;&lt;span style=&quot;border-color: var(--border-color); color: rgb(0, 0, 0); font-family: &amp;quot;Lucida Console&amp;quot;, Courier, monospace; background-color: rgb(255, 255, 255);&quot;&gt;;&lt;/span&gt;&lt;span style=&quot;color: rgb(0, 0, 0); font-family: &amp;quot;Lucida Console&amp;quot;, Courier, monospace; font-size: 9px; background-color: rgb(255, 255, 255);&quot;&gt;&lt;br style=&quot;font-size: 9px;&quot;&gt;&lt;/span&gt;&lt;span style=&quot;color: rgb(0, 0, 0); font-family: &amp;quot;Lucida Console&amp;quot;, Courier, monospace; font-size: 9px; background-color: rgb(255, 255, 255);&quot;&gt;alert(a &amp;gt; b ? a : b);&lt;/span&gt;" style="text;html=1;align=left;verticalAlign=middle;whiteSpace=wrap;rounded=0;fillColor=none;fontColor=#333333;strokeColor=#000000;fontFamily=Lucida Console;fontSize=9;perimeterSpacing=0;labelPadding=9;spacingLeft=2;" parent="mbbrbkfb5ORFqxbrYsTz-1" vertex="1">
          <mxGeometry y="30" width="140" height="60" as="geometry" />
        </mxCell>
        <mxCell id="mbbrbkfb5ORFqxbrYsTz-3" value="&lt;i&gt;source code&lt;/i&gt;" style="text;html=1;strokeColor=none;fillColor=none;align=center;verticalAlign=middle;whiteSpace=wrap;rounded=0;" parent="mbbrbkfb5ORFqxbrYsTz-1" vertex="1">
          <mxGeometry x="32.5" width="75" height="30" as="geometry" />
        </mxCell>
        <mxCell id="mbbrbkfb5ORFqxbrYsTz-7" value="" style="endArrow=block;html=1;rounded=0;exitX=1;exitY=0.5;exitDx=0;exitDy=0;dashed=1;endFill=0;entryX=0;entryY=0.5;entryDx=0;entryDy=0;entryPerimeter=0;" parent="1" source="mbbrbkfb5ORFqxbrYsTz-2" target="mbbrbkfb5ORFqxbrYsTz-13" edge="1">
          <mxGeometry y="10" width="50" height="50" relative="1" as="geometry">
            <mxPoint x="430" y="340" as="sourcePoint" />
            <mxPoint x="480" y="290" as="targetPoint" />
            <mxPoint as="offset" />
          </mxGeometry>
        </mxCell>
        <mxCell id="mbbrbkfb5ORFqxbrYsTz-8" value="(a)" style="text;html=1;strokeColor=none;fillColor=none;align=center;verticalAlign=middle;whiteSpace=wrap;rounded=0;" parent="1" vertex="1">
          <mxGeometry x="470" y="363" width="20" height="30" as="geometry" />
        </mxCell>
        <mxCell id="mbbrbkfb5ORFqxbrYsTz-12" value="CPU" style="verticalLabelPosition=bottom;verticalAlign=top;html=1;shape=mxgraph.basic.plaque_frame;dx=10;whiteSpace=wrap;" parent="1" vertex="1">
          <mxGeometry x="640" y="280" width="60" height="60" as="geometry" />
        </mxCell>
        <mxCell id="mbbrbkfb5ORFqxbrYsTz-13" value="&lt;i&gt;interpreter&lt;/i&gt;" style="verticalLabelPosition=bottom;verticalAlign=top;html=1;shape=mxgraph.basic.diag_snip_rect;dx=6;whiteSpace=wrap;" parent="1" vertex="1">
          <mxGeometry x="440" y="285" width="80" height="50" as="geometry" />
        </mxCell>
        <mxCell id="NzryKnhzQ9Qeah7yjg4x-1" value="" style="endArrow=none;html=1;rounded=0;exitX=1;exitY=0.5;exitDx=0;exitDy=0;dashed=1;endFill=0;entryX=0;entryY=0.5;entryDx=0;entryDy=0;entryPerimeter=0;startArrow=block;startFill=0;" edge="1" parent="1">
          <mxGeometry y="10" width="50" height="50" relative="1" as="geometry">
            <mxPoint x="360" y="320" as="sourcePoint" />
            <mxPoint x="440" y="320" as="targetPoint" />
            <mxPoint as="offset" />
          </mxGeometry>
        </mxCell>
        <mxCell id="NzryKnhzQ9Qeah7yjg4x-2" value="&lt;span style=&quot;font-family: &amp;quot;Lucida Console&amp;quot;, Courier, monospace; font-size: 9px; text-wrap: wrap; background-color: rgb(251, 251, 251);&quot;&gt;000110111001111&lt;/span&gt;" style="endArrow=block;html=1;rounded=0;exitX=1;exitY=0.5;exitDx=0;exitDy=0;dashed=1;endFill=0;entryX=0;entryY=0.5;entryDx=0;entryDy=0;entryPerimeter=0;exitPerimeter=0;" edge="1" parent="1" source="mbbrbkfb5ORFqxbrYsTz-13" target="mbbrbkfb5ORFqxbrYsTz-12">
          <mxGeometry y="10" width="50" height="50" relative="1" as="geometry">
            <mxPoint x="527.01" y="361.52" as="sourcePoint" />
            <mxPoint x="622.99" y="360" as="targetPoint" />
            <mxPoint as="offset" />
          </mxGeometry>
        </mxCell>
        <mxCell id="NzryKnhzQ9Qeah7yjg4x-12" value="" style="endArrow=none;html=1;rounded=0;exitX=1;exitY=0.5;exitDx=0;exitDy=0;dashed=1;endFill=0;entryX=0;entryY=0.5;entryDx=0;entryDy=0;entryPerimeter=0;exitPerimeter=0;startArrow=block;startFill=0;" edge="1" parent="1">
          <mxGeometry y="10" width="50" height="50" relative="1" as="geometry">
            <mxPoint x="520" y="320" as="sourcePoint" />
            <mxPoint x="640" y="320" as="targetPoint" />
            <mxPoint as="offset" />
          </mxGeometry>
        </mxCell>
        <mxCell id="NzryKnhzQ9Qeah7yjg4x-17" value="(b)" style="text;html=1;strokeColor=none;fillColor=none;align=center;verticalAlign=middle;whiteSpace=wrap;rounded=0;" vertex="1" parent="1">
          <mxGeometry x="470" y="720" width="20" height="30" as="geometry" />
        </mxCell>
        <mxCell id="NzryKnhzQ9Qeah7yjg4x-34" value="" style="group" vertex="1" connectable="0" parent="1">
          <mxGeometry x="200" y="429" width="580" height="130" as="geometry" />
        </mxCell>
        <mxCell id="NzryKnhzQ9Qeah7yjg4x-29" value="&lt;b&gt;STEP 1&lt;/b&gt;" style="rounded=0;whiteSpace=wrap;html=1;align=left;verticalAlign=top;dashed=1;strokeColor=#CC0066;fontColor=#CC0066;spacingLeft=5;" vertex="1" parent="NzryKnhzQ9Qeah7yjg4x-34">
          <mxGeometry width="580" height="130" as="geometry" />
        </mxCell>
        <mxCell id="NzryKnhzQ9Qeah7yjg4x-3" value="" style="group" vertex="1" connectable="0" parent="NzryKnhzQ9Qeah7yjg4x-34">
          <mxGeometry x="20" y="20" width="140" height="90" as="geometry" />
        </mxCell>
        <mxCell id="NzryKnhzQ9Qeah7yjg4x-4" value="&lt;span style=&quot;font-family: &amp;quot;Lucida Console&amp;quot;, Courier, monospace; font-size: 9px; background-color: rgb(251, 251, 251);&quot;&gt;&lt;font color=&quot;#a31515&quot;&gt;int&lt;/font&gt;&lt;/span&gt;&lt;span style=&quot;color: rgb(0, 0, 0); font-family: &amp;quot;Lucida Console&amp;quot;, Courier, monospace; font-size: 9px; background-color: rgb(255, 255, 255);&quot;&gt; a = 1&lt;/span&gt;;&lt;br&gt;&lt;span style=&quot;border-color: var(--border-color); font-family: &amp;quot;Lucida Console&amp;quot;, Courier, monospace; background-color: rgb(251, 251, 251);&quot;&gt;&lt;font color=&quot;#a31515&quot;&gt;int&lt;/font&gt;&lt;/span&gt;&lt;span style=&quot;border-color: var(--border-color); color: rgb(0, 0, 0); font-family: &amp;quot;Lucida Console&amp;quot;, Courier, monospace; background-color: rgb(255, 255, 255);&quot;&gt; b = &lt;/span&gt;&lt;span style=&quot;border-color: var(--border-color); color: rgb(0, 0, 0); font-family: &amp;quot;Lucida Console&amp;quot;, Courier, monospace; background-color: rgb(251, 251, 251);&quot;&gt;2&lt;/span&gt;&lt;span style=&quot;border-color: var(--border-color); color: rgb(0, 0, 0); font-family: &amp;quot;Lucida Console&amp;quot;, Courier, monospace; background-color: rgb(255, 255, 255);&quot;&gt;;&lt;/span&gt;&lt;span style=&quot;color: rgb(0, 0, 0); font-family: &amp;quot;Lucida Console&amp;quot;, Courier, monospace; font-size: 9px; background-color: rgb(255, 255, 255);&quot;&gt;&lt;br style=&quot;font-size: 9px;&quot;&gt;&lt;/span&gt;&lt;span style=&quot;color: rgb(0, 0, 0); font-family: &amp;quot;Lucida Console&amp;quot;, Courier, monospace; font-size: 9px; background-color: rgb(255, 255, 255);&quot;&gt;printf(&quot;%d&quot;, a + b);&lt;/span&gt;" style="text;html=1;align=left;verticalAlign=middle;whiteSpace=wrap;rounded=0;fillColor=none;fontColor=#333333;strokeColor=#000000;fontFamily=Lucida Console;fontSize=9;perimeterSpacing=0;labelPadding=9;spacingLeft=2;" vertex="1" parent="NzryKnhzQ9Qeah7yjg4x-3">
          <mxGeometry y="30" width="140" height="60" as="geometry" />
        </mxCell>
        <mxCell id="NzryKnhzQ9Qeah7yjg4x-5" value="&lt;i&gt;source code&lt;/i&gt;" style="text;html=1;strokeColor=none;fillColor=none;align=center;verticalAlign=middle;whiteSpace=wrap;rounded=0;" vertex="1" parent="NzryKnhzQ9Qeah7yjg4x-3">
          <mxGeometry x="32.5" width="75" height="30" as="geometry" />
        </mxCell>
        <mxCell id="NzryKnhzQ9Qeah7yjg4x-6" value="" style="endArrow=block;html=1;rounded=0;exitX=1;exitY=0.5;exitDx=0;exitDy=0;dashed=1;endFill=0;entryX=0;entryY=0.5;entryDx=0;entryDy=0;entryPerimeter=0;" edge="1" parent="NzryKnhzQ9Qeah7yjg4x-34" source="NzryKnhzQ9Qeah7yjg4x-4" target="NzryKnhzQ9Qeah7yjg4x-8">
          <mxGeometry y="10" width="50" height="50" relative="1" as="geometry">
            <mxPoint x="230" y="104" as="sourcePoint" />
            <mxPoint x="280" y="54" as="targetPoint" />
            <mxPoint as="offset" />
          </mxGeometry>
        </mxCell>
        <mxCell id="NzryKnhzQ9Qeah7yjg4x-8" value="&lt;i&gt;compiler&lt;/i&gt;" style="verticalLabelPosition=bottom;verticalAlign=top;html=1;shape=mxgraph.basic.diag_snip_rect;dx=6;whiteSpace=wrap;" vertex="1" parent="NzryKnhzQ9Qeah7yjg4x-34">
          <mxGeometry x="240" y="55" width="80" height="50" as="geometry" />
        </mxCell>
        <mxCell id="NzryKnhzQ9Qeah7yjg4x-10" value="" style="endArrow=block;html=1;rounded=0;exitX=1;exitY=0.5;exitDx=0;exitDy=0;dashed=1;endFill=0;entryX=0;entryY=0.5;entryDx=0;entryDy=0;exitPerimeter=0;" edge="1" parent="NzryKnhzQ9Qeah7yjg4x-34" source="NzryKnhzQ9Qeah7yjg4x-8" target="NzryKnhzQ9Qeah7yjg4x-14">
          <mxGeometry y="10" width="50" height="50" relative="1" as="geometry">
            <mxPoint x="327.01" y="125.51999999999998" as="sourcePoint" />
            <mxPoint x="440" y="74" as="targetPoint" />
            <mxPoint as="offset" />
          </mxGeometry>
        </mxCell>
        <mxCell id="NzryKnhzQ9Qeah7yjg4x-13" value="" style="group" vertex="1" connectable="0" parent="NzryKnhzQ9Qeah7yjg4x-34">
          <mxGeometry x="440" y="20" width="140" height="90" as="geometry" />
        </mxCell>
        <mxCell id="NzryKnhzQ9Qeah7yjg4x-14" value="&lt;div&gt;&lt;div&gt;&lt;font color=&quot;#000000&quot; face=&quot;Lucida Console, Courier, monospace&quot;&gt;00100001000011110101&lt;/font&gt;&lt;/div&gt;&lt;div&gt;&lt;font color=&quot;#000000&quot; face=&quot;Lucida Console, Courier, monospace&quot;&gt;11011111110100010011&lt;/font&gt;&lt;/div&gt;&lt;div&gt;&lt;font color=&quot;#000000&quot; face=&quot;Lucida Console, Courier, monospace&quot;&gt;01100011000111011100&lt;/font&gt;&lt;/div&gt;&lt;div&gt;&lt;font color=&quot;#000000&quot; face=&quot;Lucida Console, Courier, monospace&quot;&gt;10111001001100011100&lt;/font&gt;&lt;/div&gt;&lt;div&gt;&lt;font color=&quot;#000000&quot; face=&quot;Lucida Console, Courier, monospace&quot;&gt;00111001111010100110&lt;/font&gt;&lt;/div&gt;&lt;/div&gt;" style="text;html=1;align=center;verticalAlign=middle;whiteSpace=wrap;rounded=0;fillColor=none;fontColor=#333333;strokeColor=#000000;fontFamily=Lucida Console;fontSize=9;perimeterSpacing=0;labelPadding=9;spacingLeft=2;" vertex="1" parent="NzryKnhzQ9Qeah7yjg4x-13">
          <mxGeometry y="30" width="120" height="60" as="geometry" />
        </mxCell>
        <mxCell id="NzryKnhzQ9Qeah7yjg4x-15" value="&lt;i&gt;executable file&lt;/i&gt;" style="text;html=1;strokeColor=none;fillColor=none;align=center;verticalAlign=middle;whiteSpace=wrap;rounded=0;" vertex="1" parent="NzryKnhzQ9Qeah7yjg4x-13">
          <mxGeometry x="21.25" width="97.5" height="30" as="geometry" />
        </mxCell>
        <mxCell id="NzryKnhzQ9Qeah7yjg4x-35" value="" style="group" vertex="1" connectable="0" parent="1">
          <mxGeometry x="200" y="580" width="340" height="130" as="geometry" />
        </mxCell>
        <mxCell id="NzryKnhzQ9Qeah7yjg4x-32" value="&lt;b&gt;STEP 2&lt;/b&gt;" style="rounded=0;whiteSpace=wrap;html=1;align=left;verticalAlign=top;dashed=1;strokeColor=#CC0066;fontColor=#CC0066;spacingLeft=5;" vertex="1" parent="NzryKnhzQ9Qeah7yjg4x-35">
          <mxGeometry width="340" height="130" as="geometry" />
        </mxCell>
        <mxCell id="NzryKnhzQ9Qeah7yjg4x-21" value="CPU" style="verticalLabelPosition=bottom;verticalAlign=top;html=1;shape=mxgraph.basic.plaque_frame;dx=10;whiteSpace=wrap;" vertex="1" parent="NzryKnhzQ9Qeah7yjg4x-35">
          <mxGeometry x="260" y="45" width="60" height="60" as="geometry" />
        </mxCell>
        <mxCell id="NzryKnhzQ9Qeah7yjg4x-22" value="&lt;span style=&quot;font-family: &amp;quot;Lucida Console&amp;quot;, Courier, monospace; font-size: 9px; text-wrap: wrap; background-color: rgb(251, 251, 251);&quot;&gt;000110111001111&lt;/span&gt;" style="endArrow=block;html=1;rounded=0;exitX=1;exitY=0.5;exitDx=0;exitDy=0;dashed=1;endFill=0;entryX=0;entryY=0.5;entryDx=0;entryDy=0;entryPerimeter=0;exitPerimeter=0;" edge="1" parent="NzryKnhzQ9Qeah7yjg4x-35" target="NzryKnhzQ9Qeah7yjg4x-21">
          <mxGeometry y="10" width="50" height="50" relative="1" as="geometry">
            <mxPoint x="140" y="75" as="sourcePoint" />
            <mxPoint x="242.99" y="125" as="targetPoint" />
            <mxPoint as="offset" />
          </mxGeometry>
        </mxCell>
        <mxCell id="NzryKnhzQ9Qeah7yjg4x-23" value="" style="endArrow=none;html=1;rounded=0;exitX=1;exitY=0.5;exitDx=0;exitDy=0;dashed=1;endFill=0;entryX=0;entryY=0.5;entryDx=0;entryDy=0;entryPerimeter=0;exitPerimeter=0;startArrow=block;startFill=0;" edge="1" parent="NzryKnhzQ9Qeah7yjg4x-35">
          <mxGeometry y="10" width="50" height="50" relative="1" as="geometry">
            <mxPoint x="140" y="85" as="sourcePoint" />
            <mxPoint x="260" y="85" as="targetPoint" />
            <mxPoint as="offset" />
          </mxGeometry>
        </mxCell>
        <mxCell id="NzryKnhzQ9Qeah7yjg4x-24" value="" style="group" vertex="1" connectable="0" parent="NzryKnhzQ9Qeah7yjg4x-35">
          <mxGeometry x="20" y="24" width="140" height="90" as="geometry" />
        </mxCell>
        <mxCell id="NzryKnhzQ9Qeah7yjg4x-25" value="&lt;div&gt;&lt;div&gt;&lt;font color=&quot;#000000&quot; face=&quot;Lucida Console, Courier, monospace&quot;&gt;00100001000011110101&lt;/font&gt;&lt;/div&gt;&lt;div&gt;&lt;font color=&quot;#000000&quot; face=&quot;Lucida Console, Courier, monospace&quot;&gt;11011111110100010011&lt;/font&gt;&lt;/div&gt;&lt;div&gt;&lt;font color=&quot;#000000&quot; face=&quot;Lucida Console, Courier, monospace&quot;&gt;01100011000111011100&lt;/font&gt;&lt;/div&gt;&lt;div&gt;&lt;font color=&quot;#000000&quot; face=&quot;Lucida Console, Courier, monospace&quot;&gt;10111001001100011100&lt;/font&gt;&lt;/div&gt;&lt;div&gt;&lt;font color=&quot;#000000&quot; face=&quot;Lucida Console, Courier, monospace&quot;&gt;00111001111010100110&lt;/font&gt;&lt;/div&gt;&lt;/div&gt;" style="text;html=1;align=center;verticalAlign=middle;whiteSpace=wrap;rounded=0;fillColor=none;fontColor=#333333;strokeColor=#000000;fontFamily=Lucida Console;fontSize=9;perimeterSpacing=0;labelPadding=9;spacingLeft=2;" vertex="1" parent="NzryKnhzQ9Qeah7yjg4x-24">
          <mxGeometry y="30" width="120" height="60" as="geometry" />
        </mxCell>
        <mxCell id="NzryKnhzQ9Qeah7yjg4x-26" value="&lt;i&gt;executable file&lt;/i&gt;" style="text;html=1;strokeColor=none;fillColor=none;align=center;verticalAlign=middle;whiteSpace=wrap;rounded=0;" vertex="1" parent="NzryKnhzQ9Qeah7yjg4x-24">
          <mxGeometry x="21.25" width="97.5" height="30" as="geometry" />
        </mxCell>
      </root>
    </mxGraphModel>
  </diagram>
</mxfile>
